# xmcd
#
# Track frame offsets:
#	150
#	15300
#	32067
#	56013
#	77488
#	108082
#	129204
#	156284
#	170153
#	194341
#
# Disc length: 2976 seconds
# Revision: 0
# Processed by: cddbd v1.5.2PL0 Copyright (c) Steve Scherf et al.
# Submitted via: dBpowerAMP V12.0
#
DISCID=730b9e0a
DTITLE=Benny Turner - When She's Gone
DYEAR=2015
DGENRE=Blues
TTITLE0=I Can't Leave
TTITLE1=Pity on This Love Sick Fool
TTITLE2=Because of You
TTITLE3=Ain't No Sunshine 
TTITLE4=So Deep
TTITLE5=If I Can't Have You
TTITLE6=Have You Ever Been So Lonesome
TTITLE7=Reconsider Baby
TTITLE8=That's Alright - I'll Get Over You
TTITLE9=Black Night
EXTD=
EXTT0=
EXTT1=
EXTT2=
EXTT3=
EXTT4=
EXTT5=
EXTT6=
EXTT7=
EXTT8=
EXTT9=
PLAYORDER=
